<svg width="19" height="18" viewBox="0 0 19 18" fill="currentColor" xmlns="http://www.w3.org/2000/svg">
<path fill-rule="evenodd" clip-rule="evenodd" d="M4.90675 1.93274C7.73724 1.60414 10.5963 1.60414 13.4267 1.93274C14.5495 2.06324 15.3542 3.02774 15.3542 4.13024V15.75C15.3541 15.8458 15.3295 15.9399 15.2828 16.0236C15.2361 16.1072 15.1688 16.1775 15.0873 16.2278C15.0058 16.2782 14.9128 16.3068 14.8171 16.3112C14.7214 16.3155 14.6262 16.2953 14.5405 16.2525L9.16675 13.5667L3.793 16.254C3.70718 16.2968 3.61184 16.317 3.51602 16.3126C3.42021 16.3083 3.32711 16.2794 3.24557 16.2289C3.16403 16.1784 3.09675 16.1079 3.05014 16.0241C3.00353 15.9403 2.97912 15.8459 2.97925 15.75V4.13024C2.97925 3.02774 3.784 2.06324 4.90675 1.93274Z" />
</svg>
