<svg width="155" height="102" viewBox="0 0 155 102" fill="none" xmlns="http://www.w3.org/2000/svg">
<path d="M2.71577 4.64488C-2.59193 13.8541 6.26275 39.3255 13.2114 47.4944L9.30365 53.2592L13.2622 53.2241C10.3832 65.335 13.1897 89.6267 47.448 89.906L53.9593 89.8481C60.1205 94.4558 64.9882 99.4494 79.8325 100.401C87.8068 100.33 93.5443 98.9811 96.3178 98.0291C124.48 101.634 132.696 69.3192 130.107 59.3752L133.328 58.3048C133.328 58.3048 132.269 56.4389 131.406 53.1126C150.36 38.1085 156.767 22.7562 153.291 18.5155C149.332 14.6263 137.407 12.2217 119.415 16.7546C96.6878 7.16008 61.2202 6.12364 45.3766 9.1815C41.5036 7.13217 7.42837 -3.53181 2.71577 4.64488Z" fill="#E63A23" stroke="#E63A23" stroke-linecap="round"/>
<path d="M26.4801 12.9618C2.84548 0.458776 6.35637 13.4053 14.0545 26.3695C16.6263 30.7007 22.6011 31.0898 26.0557 27.4238L28.2963 25.0461C31.7756 21.354 30.9644 15.3341 26.4801 12.9618Z" fill="white" stroke="white" stroke-linecap="round"/>
<path d="M127.521 24.0463C153.349 17.1284 147.04 28.966 136.644 39.8871C133.172 43.5358 127.26 42.5827 124.71 38.2388L123.056 35.4213C120.488 31.0463 122.621 25.3588 127.521 24.0463Z" fill="white" stroke="white" stroke-width="6" stroke-linecap="round"/>
<path d="M129.147 44.7507C137.354 38.8212 144.715 30.4446 144.645 26.1815C144.587 22.6124 139.999 22.0925 119.807 26.7096" stroke="white" stroke-linecap="round"/>
<path d="M63.1812 43.1205C62.1078 41.0206 60.7152 38.5444 59.7008 36.6698C59.347 36.016 59.8174 35.2001 60.5582 35.1388C61.534 35.0581 62.5029 35.0152 63.8419 35.405C66.9599 36.3128 70.8715 38.791 71.6083 41.7955C71.9356 43.1299 72.4499 45.3044 71.6555 47.1085C70.3333 49.9709 65.9286 47.4719 63.1812 43.1205Z" fill="white" stroke="white"/>
<path d="M101.222 46.6827C102.636 45.6582 104.477 44.0726 106.053 42.7661C106.671 42.2541 106.518 41.1692 105.799 40.8133C105.118 40.4762 104.406 40.168 103.325 40.0623C100.383 39.7746 96.2388 40.5456 94.5996 42.8355C93.8715 43.8525 92.7012 45.5163 92.7622 47.3096C92.9111 50.1761 97.4275 49.4306 101.222 46.6827Z" fill="white" stroke="white"/>
<path d="M31.618 67.1261C36.6271 58.6635 44.3475 57.5323 46.9676 59.2802C50.6416 62.3731 39.4294 70.2523 38.7701 71.0916C37.4283 72.7998 36.9773 74.9371 36.1461 76.944C35.2444 79.121 34.6821 82.1575 32.3956 82.7267C32.143 82.7895 31.923 82.7925 31.7568 82.7525C30.0863 82.3506 25.3567 77.7043 31.618 67.1261Z" fill="white" stroke="white"/>
<path d="M121.194 76.3322C121.11 66.8521 115.783 63.8319 112.642 63.5934C107.843 63.7646 113.452 72.1294 113.881 73.48C113.928 73.6276 114.029 74.2336 114.096 75.0106C114.301 77.3761 113.337 79.5614 112.412 81.7478C111.607 83.6478 110.488 85.8524 111.432 87.6872C111.646 88.1037 111.918 88.3653 112.154 88.4729C113.717 89.186 121.303 88.6241 121.194 76.3322Z" fill="white" stroke="white" stroke-linejoin="round"/>
<path d="M103.011 53.8252C97.6666 52.3899 94.6156 56.7874 93.4533 59.978C93.2572 60.5163 93.6072 61.0832 94.1786 61.1238C97.0038 61.3246 101.55 60.3018 103.602 55.0076C103.793 54.5144 103.522 53.9624 103.011 53.8252Z" fill="#E63A23" stroke="white"/>
<path d="M96.2286 68.9485C101.18 71.1619 105.637 76.3619 106.242 79.1277C106.806 81.7084 109.527 85.269 96.2285 89.4503" stroke="white" stroke-linecap="round"/>
<path d="M56.0111 49.8067C62.1923 47.952 65.7926 53.0519 67.1476 56.6726C67.3486 57.2096 67.0083 57.7815 66.438 57.8401C63.2299 58.1699 57.8886 57.1461 55.4391 51.0066C55.2429 50.5148 55.5039 49.9589 56.0111 49.8067Z" fill="#E63A23" stroke="white"/>
<path d="M65.4409 68.7551C60.53 71.056 55.5715 75.0063 55.5966 77.8374C55.6197 80.4418 53.5969 84.5381 66.9675 88.4826" stroke="white" stroke-linecap="round"/>
<path d="M81.3012 75.8904L78.4842 71.2234C78.0864 70.5643 78.5512 69.7218 79.3209 69.7068L84.7711 69.6008C85.5408 69.5858 86.038 70.4096 85.6662 71.0836L83.0329 75.8567C82.661 76.5307 81.699 76.5495 81.3012 75.8904Z" fill="white" stroke="white" stroke-width="6"/>
</svg>
