<svg width="32" height="32" viewBox="0 0 32 32" fill="none" xmlns="http://www.w3.org/2000/svg">
<path d="M15.2933 5.11991C15.4808 4.93264 15.735 4.82745 16 4.82745C16.265 4.82745 16.5192 4.93264 16.7067 5.11991L28.2933 16.7066C28.3849 16.8048 28.4953 16.8836 28.6179 16.9383C28.7406 16.9929 28.873 17.0223 29.0073 17.0247C29.1416 17.0271 29.2749 17.0024 29.3994 16.9521C29.524 16.9018 29.6371 16.8269 29.732 16.732C29.827 16.637 29.9019 16.5239 29.9521 16.3994C30.0024 16.2749 30.0271 16.1415 30.0248 16.0072C30.0224 15.8729 29.993 15.7405 29.9384 15.6179C29.8837 15.4952 29.8049 15.3848 29.7066 15.2932L18.1213 3.70657C17.8427 3.42799 17.512 3.20701 17.148 3.05625C16.7841 2.90548 16.394 2.82788 16 2.82788C15.606 2.82788 15.2159 2.90548 14.8519 3.05625C14.4879 3.20701 14.1572 3.42799 13.8787 3.70657L2.29199 15.2932C2.10991 15.4819 2.00924 15.7346 2.01164 15.9968C2.01404 16.259 2.11933 16.5097 2.30482 16.6951C2.49032 16.8804 2.74118 16.9854 3.00338 16.9876C3.26558 16.9897 3.51814 16.8888 3.70665 16.7066L15.2933 5.11991Z" fill="#E63A23"/>
<path d="M16 7.24266L26.8787 18.1213C26.9187 18.1613 26.9587 18.1987 27 18.236V26.5C27 27.88 25.88 29 24.5 29H20C19.7348 29 19.4804 28.8946 19.2929 28.7071C19.1054 28.5196 19 28.2652 19 28V22C19 21.7348 18.8946 21.4804 18.7071 21.2929C18.5196 21.1053 18.2652 21 18 21H14C13.7348 21 13.4804 21.1053 13.2929 21.2929C13.1054 21.4804 13 21.7348 13 22V28C13 28.2652 12.8946 28.5196 12.7071 28.7071C12.5196 28.8946 12.2652 29 12 29H7.5C6.83696 29 6.20107 28.7366 5.73223 28.2678C5.26339 27.7989 5 27.163 5 26.5V18.236C5.04148 18.1989 5.08194 18.1606 5.12133 18.1213L16 7.23999V7.24266Z" fill="#E63A23"/>
</svg>
