<svg width="26" height="27" viewBox="0 0 26 27" fill="none" xmlns="http://www.w3.org/2000/svg">
<path d="M23.6522 8.67494V19.6315C23.6522 20.2541 23.3985 20.8513 22.9469 21.2916C22.4953 21.7319 21.8828 21.9793 21.2442 21.9793H5.19065C4.552 21.9793 3.93951 21.7319 3.48792 21.2916C3.03633 20.8513 2.78262 20.2541 2.78262 19.6315V8.67494M23.6522 8.67494C23.6522 8.05225 23.3985 7.45508 22.9469 7.01477C22.4953 6.57447 21.8828 6.32711 21.2442 6.32711H5.19065C4.552 6.32711 3.93951 6.57447 3.48792 7.01477C3.03633 7.45508 2.78262 8.05225 2.78262 8.67494M23.6522 8.67494V8.9285C23.6522 9.32935 23.547 9.72353 23.3466 10.0735C23.1461 10.4235 22.8571 10.7176 22.507 10.9278L14.4803 15.7435C14.1006 15.9715 13.6634 16.0922 13.2174 16.0922C12.7714 16.0922 12.3342 15.9715 11.9545 15.7435L3.92777 10.9288C3.57772 10.7186 3.2887 10.4245 3.08825 10.0745C2.88779 9.72458 2.78258 9.33039 2.78262 8.92955V8.67494" stroke="#B9B9B9" stroke-width="1.5" stroke-linecap="round" stroke-linejoin="round"/>
</svg>
