<svg width="19" height="18" viewBox="0 0 19 18" fill="none" xmlns="http://www.w3.org/2000/svg">
<rect width="18" height="18"/>
<path d="M6.45837 6.1875H13.2084M6.45837 8.4375H9.83337M2.52087 9.57C2.52087 10.77 3.36312 11.8155 4.55112 11.9903C5.39787 12.1148 6.25362 12.21 7.11837 12.2745C7.38087 12.294 7.62087 12.432 7.76712 12.6503L9.83337 15.75L11.8996 12.6503C11.9721 12.5425 12.0682 12.4526 12.1806 12.3875C12.293 12.3224 12.4188 12.2837 12.5484 12.2745C13.4072 12.2104 14.2635 12.1156 15.1156 11.9903C16.3036 11.8155 17.1459 10.7708 17.1459 9.56925V5.05575C17.1459 3.85425 16.3036 2.8095 15.1156 2.63475C13.3666 2.37804 11.6011 2.24944 9.83337 2.25C8.03937 2.25 6.27537 2.38125 4.55112 2.63475C3.36312 2.8095 2.52087 3.855 2.52087 5.05575V9.56925V9.57Z" stroke="#E63A23" stroke-width="1.5" stroke-linecap="round" stroke-linejoin="round"/>
</svg>
