<svg width="19" height="18" viewBox="0 0 19 18" fill="none" xmlns="http://www.w3.org/2000/svg">
<path d="M5.91276 8.18025C5.73116 7.85348 5.44619 7.59627 5.10259 7.44899C4.75898 7.3017 4.3762 7.27268 4.01432 7.36648C3.65244 7.46029 3.33196 7.6716 3.10317 7.96725C2.87438 8.2629 2.75024 8.62616 2.75024 9C2.75024 9.37384 2.87438 9.73709 3.10317 10.0327C3.33196 10.3284 3.65244 10.5397 4.01432 10.6335C4.3762 10.7273 4.75898 10.6983 5.10259 10.551C5.44619 10.4037 5.73116 10.1465 5.91276 9.81975M5.91276 8.18025C6.04776 8.42325 6.12501 8.70225 6.12501 9C6.12501 9.29775 6.04776 9.5775 5.91276 9.81975M5.91276 8.18025L13.0873 4.19475ZM5.91276 9.81975L13.0873 13.8052ZM13.0873 13.8052C12.9796 13.999 12.9112 14.2121 12.8859 14.4323C12.8606 14.6526 12.8789 14.8756 12.9398 15.0888C13.0007 15.3019 13.103 15.501 13.2408 15.6746C13.3787 15.8482 13.5494 15.993 13.7431 16.1006C13.9369 16.2083 14.15 16.2767 14.3702 16.302C14.5905 16.3273 14.8135 16.309 15.0267 16.2481C15.2398 16.1872 15.4389 16.0849 15.6125 15.947C15.7861 15.8092 15.9309 15.6385 16.0385 15.4447C16.2559 15.0534 16.309 14.5917 16.186 14.1612C16.063 13.7308 15.774 13.3668 15.3826 13.1494C14.9913 12.932 14.5296 12.8789 14.0991 13.0019C13.6686 13.1249 13.3047 13.4139 13.0873 13.8052ZM13.0873 4.19475C13.1924 4.39285 13.3361 4.568 13.5097 4.70995C13.6834 4.85189 13.8836 4.95779 14.0987 5.02146C14.3138 5.08512 14.5394 5.10527 14.7624 5.08072C14.9853 5.05617 15.2011 4.98742 15.3972 4.87849C15.5933 4.76957 15.7657 4.62264 15.9043 4.44631C16.0429 4.26998 16.145 4.06778 16.2046 3.85154C16.2641 3.63529 16.28 3.40934 16.2512 3.18689C16.2225 2.96445 16.1496 2.74997 16.037 2.556C15.8151 2.17375 15.452 1.89385 15.0259 1.77646C14.5997 1.65907 14.1445 1.71356 13.7582 1.92821C13.3718 2.14287 13.085 2.50056 12.9596 2.92439C12.8341 3.34823 12.88 3.80436 13.0873 4.19475Z"/>
<path d="M5.91276 8.18025C5.73116 7.85348 5.44619 7.59627 5.10259 7.44899C4.75898 7.3017 4.3762 7.27268 4.01432 7.36648C3.65244 7.46029 3.33196 7.6716 3.10317 7.96725C2.87438 8.2629 2.75024 8.62616 2.75024 9C2.75024 9.37384 2.87438 9.73709 3.10317 10.0327C3.33196 10.3284 3.65244 10.5397 4.01432 10.6335C4.3762 10.7273 4.75898 10.6983 5.10259 10.551C5.44619 10.4037 5.73116 10.1465 5.91276 9.81975M5.91276 8.18025C6.04776 8.42325 6.12501 8.70225 6.12501 9C6.12501 9.29775 6.04776 9.5775 5.91276 9.81975M5.91276 8.18025L13.0873 4.19475M5.91276 9.81975L13.0873 13.8052M13.0873 4.19475C13.1924 4.39285 13.3361 4.568 13.5097 4.70995C13.6834 4.85189 13.8836 4.95779 14.0987 5.02146C14.3138 5.08512 14.5394 5.10527 14.7624 5.08072C14.9853 5.05617 15.2011 4.98742 15.3972 4.87849C15.5933 4.76957 15.7657 4.62264 15.9043 4.44631C16.0429 4.26998 16.145 4.06778 16.2046 3.85154C16.2641 3.63529 16.28 3.40934 16.2512 3.18689C16.2225 2.96445 16.1496 2.74997 16.037 2.556C15.8151 2.17375 15.452 1.89385 15.0259 1.77646C14.5997 1.65907 14.1445 1.71356 13.7582 1.92821C13.3718 2.14287 13.085 2.50056 12.9596 2.92439C12.8341 3.34823 12.88 3.80436 13.0873 4.19475ZM13.0873 13.8052C12.9796 13.999 12.9112 14.2121 12.8859 14.4323C12.8606 14.6526 12.8789 14.8756 12.9398 15.0888C13.0007 15.3019 13.103 15.501 13.2408 15.6746C13.3787 15.8482 13.5494 15.993 13.7431 16.1006C13.9369 16.2083 14.15 16.2767 14.3702 16.302C14.5905 16.3273 14.8135 16.309 15.0267 16.2481C15.2398 16.1872 15.4389 16.0849 15.6125 15.947C15.7861 15.8092 15.9309 15.6385 16.0385 15.4447C16.2559 15.0534 16.309 14.5917 16.186 14.1612C16.063 13.7308 15.774 13.3668 15.3826 13.1494C14.9913 12.932 14.5296 12.8789 14.0991 13.0019C13.6686 13.1249 13.3047 13.4139 13.0873 13.8052Z" stroke="currentColor" stroke-width="1.5" stroke-linecap="round" stroke-linejoin="round"/>
</svg>
