<svg width="1040" height="709" viewBox="0 0 1040 709" fill="none" xmlns="http://www.w3.org/2000/svg">
<g filter="url(#filter0_d_38_85)">
<path d="M11.9286 75.4833C40.2955 20.372 267.151 79.7175 293.196 91.9555C396.177 66.9586 629.166 62.7089 781.244 118.573C897.86 83.2305 976.838 95.2908 1004.02 119.572C1028.14 146.31 990.894 249.025 871.236 353.364C877.934 374.917 885.459 386.829 885.459 386.829L864.667 394.855C872.893 421.249 870.393 472.839 851.797 523.528C848.545 532.392 844.801 541.227 840.537 549.896C809.655 612.67 753.798 654.28 655.05 658.97C637.153 666.079 599.936 676.718 547.647 679.667C449.972 678.048 392.295 662.754 359.631 631.952L329.976 626.825C259.745 615.999 202.587 607.736 165.936 581.933C155.361 574.488 146.171 566.239 138.221 557.416C92.2744 506.422 87.7232 436.228 96.2488 390.901L70.2915 392.365L85.429 370.492L90.9265 359.647C92.859 355.834 92.2481 351.255 89.5727 347.922C44.4514 291.704 -18.9648 135.503 11.9286 75.4833Z" fill="#E63A23"/>
<path d="M89.5727 347.922C44.4514 291.704 -18.9648 135.503 11.9286 75.4833C40.2955 20.372 267.151 79.7175 293.196 91.9555C396.177 66.9586 629.166 62.7089 781.244 118.573C897.86 83.2305 976.838 95.2908 1004.02 119.572C1028.14 146.31 990.894 249.025 871.236 353.364C877.934 374.917 885.459 386.829 885.459 386.829L864.667 394.855C872.893 421.249 870.393 472.839 851.797 523.528C848.545 532.392 844.801 541.227 840.537 549.896C809.655 612.67 753.798 654.28 655.05 658.97C637.153 666.079 599.936 676.718 547.647 679.667C449.972 678.048 392.295 662.754 359.631 631.952L329.976 626.825C259.745 615.999 202.587 607.736 165.936 581.933C155.361 574.488 146.171 566.239 138.221 557.416C92.2744 506.422 87.7232 436.228 96.2488 390.901L70.2915 392.365L85.429 370.492L90.9265 359.647M89.5727 347.922C92.2481 351.255 92.859 355.834 90.9265 359.647M89.5727 347.922C90.3541 348.896 91.1299 349.839 91.8997 350.752C93.2251 352.323 93.5187 354.533 92.5893 356.366L90.9265 359.647" stroke="#E63A23" stroke-linecap="round"/>
<path d="M219.207 147.443C-28.6775 13.3744 49.0833 160.488 124.621 258.509C127.696 262.499 133.639 262.6 136.916 258.774L221.71 159.769C225.01 155.916 223.669 149.856 219.207 147.443Z" fill="white" stroke="white" stroke-width="6" stroke-linecap="round"/>
<path d="M795.242 173.794C1060.39 78.3302 961.498 212.151 872.147 297.765C868.509 301.25 862.618 300.46 859.95 296.187L790.922 185.607C788.236 181.304 790.469 175.512 795.242 173.794Z" fill="white" stroke="white" stroke-width="6" stroke-linecap="round"/>
<path d="M420.567 309.065C411.059 292.458 398.176 272.234 391.121 260.083C390.747 259.44 391.19 258.635 391.931 258.576C402.022 257.775 409.552 255.13 422.498 258.242C443.234 263.226 469.667 278.266 475.436 297.747C477.999 306.399 482.05 320.505 477.401 332.588C469.619 351.779 439.946 336.756 420.567 309.065Z" fill="white" stroke="white" stroke-width="2"/>
<path d="M671.222 320.584C682.68 311.426 698.427 296.032 709.529 286.376C710.134 285.849 709.909 284.854 709.144 284.61C700.234 281.762 694.915 277.095 682.959 276.496C663.569 275.525 636.623 281.874 626.583 297.408C622.124 304.307 614.965 315.586 615.924 327.333C617.794 346.092 647.189 339.794 671.222 320.584Z" fill="white" stroke="white" stroke-width="2"/>
<path d="M220.994 476.386C251.216 419.307 301.51 409.48 319.242 420.131C344.307 439.277 273.21 494.461 269.147 500.173C267.919 501.898 263.711 506.891 260.661 514.779C259.584 517.563 259.138 520.536 258.55 523.462C256.406 534.13 250.734 546.292 247.569 557.323C246.685 560.405 245.822 563.525 244.243 566.316C238.312 576.799 230.549 579.581 226.773 578.86C215.689 576.744 183.216 547.735 220.994 476.386Z" fill="white" stroke="white" stroke-width="2"/>
<path d="M811.479 508.878C807.974 446.71 772.086 428.556 751.409 427.969C719.978 430.588 759.384 483.717 762.617 492.444C763.348 494.416 766.195 509.166 765.335 520.285C765.051 523.964 763.625 527.41 762.11 530.775C757.797 540.356 753.893 551.763 750.186 562.039C749.097 565.055 748.177 568.159 748.003 571.36C747.35 583.388 752.39 589.915 755.959 591.343C766.436 595.534 816.025 589.485 811.479 508.878Z" fill="white" stroke="white" stroke-width="2" stroke-linejoin="round"/>
<path d="M690.26 368.218C647.999 355.283 627.925 393.891 622.864 415.901C622.736 416.46 623.101 416.991 623.669 417.068C641.934 419.542 679.192 413.355 690.934 369.431C691.071 368.92 690.765 368.372 690.26 368.218Z" fill="#E63A23" stroke="white" stroke-width="4" stroke-linejoin="round"/>
<path d="M645.405 468.214C678.573 481.192 708.888 510.429 709.935 528.995C710.976 547.44 717.427 590.939 631.492 622.513" stroke="white" stroke-width="4" stroke-linecap="round" stroke-linejoin="round"/>
<path d="M370.726 357.091C416.878 337.003 444.485 378.1 452.949 402.214C453.139 402.755 452.837 403.322 452.282 403.464C432.044 408.623 389.045 406.502 370.191 358.375C369.998 357.882 370.241 357.302 370.726 357.091Z" fill="#E63A23" stroke="white" stroke-width="4" stroke-linejoin="round"/>
<path d="M442.147 472.989C410.648 489.614 383.796 521.443 384.844 540.008C385.807 557.087 384.379 603.033 473.319 624.745" stroke="white" stroke-width="4" stroke-linecap="round" stroke-linejoin="round"/>
<path d="M544.248 547.509L502.144 477.408C497.388 469.489 502.987 459.391 512.223 459.231L593.98 457.816C603.216 457.656 609.162 467.554 604.683 475.633L565.03 547.15C560.55 555.229 549.004 555.429 544.248 547.509Z" fill="white" stroke="white" stroke-width="2"/>
</g>
<defs>
<filter id="filter0_d_38_85" x="1.25269" y="49.9133" width="1016.23" height="636.254" filterUnits="userSpaceOnUse" color-interpolation-filters="sRGB">
<feFlood flood-opacity="0" result="BackgroundImageFix"/>
<feColorMatrix in="SourceAlpha" type="matrix" values="0 0 0 0 0 0 0 0 0 0 0 0 0 0 0 0 0 0 127 0" result="hardAlpha"/>
<feOffset dx="2" dy="2"/>
<feGaussianBlur stdDeviation="2"/>
<feComposite in2="hardAlpha" operator="out"/>
<feColorMatrix type="matrix" values="0 0 0 0 0.129412 0 0 0 0 0.129412 0 0 0 0 0.129412 0 0 0 0.25 0"/>
<feBlend mode="normal" in2="BackgroundImageFix" result="effect1_dropShadow_38_85"/>
<feBlend mode="normal" in="SourceGraphic" in2="effect1_dropShadow_38_85" result="shape"/>
</filter>
</defs>
</svg>
