<svg width="2139" height="2139" viewBox="0 0 2139 2139" fill="none" xmlns="http://www.w3.org/2000/svg">
<circle cx="1069.5" cy="1069.5" r="1069.5" fill="#E63A23"/>
<g filter="url(#filter0_d_47_43)">
<path d="M160.035 604.587C213.378 500.953 639.965 612.549 688.942 635.562C882.592 588.557 1320.71 580.565 1606.69 685.615C1825.98 619.155 1974.49 641.834 2025.6 687.493C2070.97 737.773 2000.92 930.922 1775.91 1127.13C1788.51 1167.65 1802.66 1190.05 1802.66 1190.05L1763.56 1205.15C1779.03 1254.78 1774.33 1351.79 1739.36 1447.11C1733.24 1463.78 1726.2 1480.39 1718.18 1496.69C1660.11 1614.74 1555.08 1692.98 1369.39 1701.8C1335.73 1715.17 1265.75 1735.17 1167.42 1740.72C983.75 1737.67 875.291 1708.92 813.869 1650.99L758.104 1641.35C626.04 1620.99 518.556 1605.46 449.637 1556.94C429.751 1542.94 412.471 1527.42 397.521 1510.83C311.121 1414.94 302.563 1282.95 318.594 1197.71L269.783 1200.46L298.249 1159.33L308.586 1138.94C312.22 1131.77 311.071 1123.16 306.041 1116.89C221.193 1011.18 101.942 717.45 160.035 604.587Z" fill="white"/>
<path d="M306.041 1116.89C221.193 1011.18 101.942 717.45 160.035 604.587C213.378 500.953 639.965 612.549 688.942 635.562C882.592 588.557 1320.71 580.565 1606.69 685.615C1825.98 619.155 1974.49 641.834 2025.6 687.493C2070.97 737.773 2000.92 930.922 1775.91 1127.13C1788.51 1167.65 1802.66 1190.05 1802.66 1190.05L1763.56 1205.15C1779.03 1254.78 1774.33 1351.79 1739.36 1447.11C1733.24 1463.78 1726.2 1480.39 1718.18 1496.69C1660.11 1614.74 1555.08 1692.98 1369.39 1701.8C1335.73 1715.17 1265.75 1735.17 1167.42 1740.72C983.75 1737.67 875.291 1708.92 813.869 1650.99L758.104 1641.35C626.04 1620.99 518.556 1605.46 449.637 1556.94C429.751 1542.94 412.471 1527.42 397.521 1510.83C311.121 1414.94 302.563 1282.95 318.594 1197.71L269.783 1200.46L298.249 1159.33L308.586 1138.94M306.041 1116.89C311.071 1123.16 312.22 1131.77 308.586 1138.94M306.041 1116.89C308.171 1119.55 310.28 1122.08 312.364 1124.49C313.708 1126.05 313.999 1128.26 313.069 1130.1L308.586 1138.94" stroke="white" stroke-linecap="round"/>
<path d="M557.583 744.124C76.222 481.552 232.827 770.346 377.209 955.545C380.306 959.518 386.221 959.584 389.498 955.758L560.151 756.506C563.45 752.653 562.037 746.553 557.583 744.124Z" fill="#E63A23" stroke="#E63A23" stroke-width="6" stroke-linecap="round"/>
<path d="M1624.69 792.465C2139.91 604.884 1941.87 866.991 1771.4 1028.5C1767.75 1031.96 1761.89 1031.14 1759.22 1026.87L1620.3 804.324C1617.61 800.02 1619.92 794.201 1624.69 792.465Z" fill="#E63A23" stroke="#E63A23" stroke-width="6" stroke-linecap="round"/>
<path d="M928.457 1043.82C910.251 1012.02 885.465 973.174 872.369 950.479C871.997 949.835 872.444 949.038 873.186 948.987C892.888 947.629 907.138 942.256 932.087 948.253C971.081 957.625 1020.79 985.907 1031.63 1022.54C1036.45 1038.81 1044.07 1065.34 1035.33 1088.06C1020.7 1124.14 964.897 1095.89 928.457 1043.82Z" fill="#E63A23" stroke="#E63A23" stroke-width="2"/>
<path d="M1399.8 1065.48C1421.78 1047.91 1452.16 1018.14 1473.09 1000.07C1473.69 999.546 1473.47 998.557 1472.7 998.327C1454.97 993.037 1445.05 983.74 1421.87 982.579C1385.41 980.753 1334.74 992.693 1315.86 1021.9C1307.47 1034.88 1294.01 1056.09 1295.81 1078.17C1299.33 1113.45 1354.61 1101.61 1399.8 1065.48Z" fill="#E63A23" stroke="#E63A23" stroke-width="2"/>
<path d="M553.169 1358.46C610.001 1251.13 704.575 1232.65 737.92 1252.68C785.053 1288.68 651.36 1392.45 643.718 1403.19C641.223 1406.7 632.178 1417.39 626.414 1434.37C625.454 1437.2 624.96 1440.15 624.492 1443.1C620.963 1465.36 607.996 1491.62 602.026 1514.75C601.224 1517.85 600.307 1520.94 598.879 1523.82C587.535 1546.62 571.568 1552.59 564.036 1551.16C543.194 1547.18 482.13 1492.63 553.169 1358.46Z" fill="#E63A23" stroke="#E63A23" stroke-width="2"/>
<path d="M1663.54 1419.56C1656.95 1302.66 1589.46 1268.52 1550.58 1267.42C1491.48 1272.34 1565.58 1372.25 1571.66 1388.66C1573.14 1392.66 1579.27 1424.69 1576.24 1445.87C1575.72 1449.53 1574.33 1452.96 1572.75 1456.3C1563.25 1476.36 1554.82 1501.61 1546.84 1523.51C1545.74 1526.53 1544.87 1529.63 1544.52 1532.82C1541.79 1558.15 1552.02 1571.78 1559.14 1574.63C1578.84 1582.51 1672.09 1571.14 1663.54 1419.56Z" fill="#E63A23" stroke="#E63A23" stroke-width="2" stroke-linejoin="round"/>
<path d="M1436.4 1155.31C1355.8 1130.06 1317.86 1204.26 1308.66 1245.62C1308.54 1246.18 1308.89 1246.7 1309.46 1246.79C1343.57 1251.79 1415.05 1240.6 1437.08 1156.53C1437.21 1156.01 1436.91 1155.46 1436.4 1155.31Z" fill="white" stroke="#E63A23" stroke-width="10" stroke-linejoin="round"/>
<path d="M1351.25 1343.09C1413.62 1367.5 1470.63 1422.48 1472.6 1457.39C1474.55 1492.07 1486.68 1573.87 1325.09 1633.24" stroke="#E63A23" stroke-width="10" stroke-linecap="round" stroke-linejoin="round"/>
<path d="M833.96 1134.47C921.769 1095.65 974.052 1174.5 989.651 1219.85C989.838 1220.4 989.542 1220.96 988.988 1221.1C951.211 1231.12 868.993 1227.74 833.422 1135.76C833.231 1135.27 833.475 1134.69 833.96 1134.47Z" fill="white" stroke="#E63A23" stroke-width="10" stroke-linejoin="round"/>
<path d="M969.036 1352.07C909.805 1383.33 859.311 1443.19 861.28 1478.1C863.092 1510.21 860.408 1596.61 1027.65 1637.44" stroke="#E63A23" stroke-width="10" stroke-linecap="round" stroke-linejoin="round"/>
<path d="M1133.03 1447.29L1108.35 1406.2C1086.95 1370.57 1112.15 1325.13 1153.71 1324.41L1201.62 1323.58C1243.19 1322.86 1269.94 1367.4 1249.78 1403.75L1226.54 1445.67C1206.39 1482.02 1154.43 1482.92 1133.03 1447.29Z" fill="#E63A23" stroke="#E63A23" stroke-width="2"/>
</g>
<defs>
<filter id="filter0_d_47_43" x="144.161" y="560.705" width="1906.03" height="1191.51" filterUnits="userSpaceOnUse" color-interpolation-filters="sRGB">
<feFlood flood-opacity="0" result="BackgroundImageFix"/>
<feColorMatrix in="SourceAlpha" type="matrix" values="0 0 0 0 0 0 0 0 0 0 0 0 0 0 0 0 0 0 127 0" result="hardAlpha"/>
<feOffset dx="7" dy="7"/>
<feGaussianBlur stdDeviation="2"/>
<feComposite in2="hardAlpha" operator="out"/>
<feColorMatrix type="matrix" values="0 0 0 0 0.129412 0 0 0 0 0.129412 0 0 0 0 0.129412 0 0 0 0.25 0"/>
<feBlend mode="normal" in2="BackgroundImageFix" result="effect1_dropShadow_47_43"/>
<feBlend mode="normal" in="SourceGraphic" in2="effect1_dropShadow_47_43" result="shape"/>
</filter>
</defs>
</svg>
