<svg width="44" height="44" viewBox="0 0 44 44" fill="none" xmlns="http://www.w3.org/2000/svg">
<path d="M22 42C26.4333 41.9997 30.741 40.5271 34.2467 37.8134C37.7524 35.0996 40.2576 31.2985 41.3689 27.0067M22 42C17.5667 41.9997 13.259 40.5271 9.75327 37.8134C6.24757 35.0996 3.7424 31.2985 2.63112 27.0067M22 42C27.5222 42 32 33.0444 32 22C32 10.9556 27.5222 2 22 2M22 42C16.4778 42 12 33.0444 12 22C12 10.9556 16.4778 2 22 2M41.3689 27.0067C41.78 25.4067 42 23.7289 42 22C42.0055 18.5602 41.1196 15.1778 39.4289 12.1822M41.3689 27.0067C35.4426 30.292 28.776 32.0106 22 32C14.9733 32 8.37111 30.1889 2.63112 27.0067M2.63112 27.0067C2.21056 25.3711 1.99851 23.6888 2.00001 22C2.00001 18.4333 2.93334 15.0822 4.57112 12.1822M22 2C25.5472 1.99852 29.0309 2.9408 32.0937 4.73014C35.1566 6.51949 37.6882 9.09148 39.4289 12.1822M22 2C18.4528 1.99852 14.9691 2.9408 11.9062 4.73014C8.84342 6.51949 6.3118 9.09148 4.57112 12.1822M39.4289 12.1822C34.5904 16.3732 28.4012 18.6759 22 18.6667C15.3378 18.6667 9.24445 16.2222 4.57112 12.1822" stroke="white" stroke-width="3" stroke-linecap="round" stroke-linejoin="round"/>
</svg>
