<svg width="38" height="33" viewBox="0 0 38 33" fill="none" xmlns="http://www.w3.org/2000/svg">
<path d="M6.1 12.9117C5.64158 16.421 5.36842 19.952 5.28167 23.49C10.0796 25.4943 14.6736 27.9556 19 30.84C23.3269 27.9555 27.9215 25.4942 32.72 23.49C32.6332 19.952 32.36 16.421 31.9017 12.9117M31.9017 12.9117C33.36 12.4217 34.8383 11.9683 36.3317 11.555C30.8926 7.74208 25.0866 4.48147 19 1.82167C12.9133 4.48203 7.10733 7.74319 1.66833 11.5567C3.15714 11.9677 4.63436 12.4195 6.09833 12.9117C10.5461 14.4069 14.8616 16.27 19 18.4817C23.1379 16.2701 27.4545 14.407 31.9017 12.9117ZM10.25 21C10.5815 21 10.8995 20.8683 11.1339 20.6339C11.3683 20.3995 11.5 20.0815 11.5 19.75C11.5 19.4185 11.3683 19.1005 11.1339 18.8661C10.8995 18.6317 10.5815 18.5 10.25 18.5C9.91848 18.5 9.60054 18.6317 9.36612 18.8661C9.1317 19.1005 9 19.4185 9 19.75C9 20.0815 9.1317 20.3995 9.36612 20.6339C9.60054 20.8683 9.91848 21 10.25 21ZM10.25 21V14.875C13.0779 13.1172 15.9988 11.5138 19 10.0717M7.32167 29.3217C8.25162 28.394 8.98906 27.2917 9.49161 26.0781C9.99415 24.8645 10.2519 23.5635 10.25 22.25V19.75" stroke="white" stroke-width="3" stroke-linecap="round" stroke-linejoin="round"/>
</svg>
