<svg width="38" height="36" viewBox="0 0 38 36" fill="none" xmlns="http://www.w3.org/2000/svg">
<path d="M21.5 15.5V9.25C21.5 7.26088 22.2902 5.35322 23.6967 3.9467C25.1032 2.54018 27.0109 1.75 29 1.75C30.9891 1.75 32.8968 2.54018 34.3033 3.9467C35.7098 5.35322 36.5 7.26088 36.5 9.25V15.5M5.25 34.25H22.75C23.7446 34.25 24.6984 33.8549 25.4016 33.1516C26.1049 32.4484 26.5 31.4946 26.5 30.5V19.25C26.5 18.2554 26.1049 17.3016 25.4016 16.5983C24.6984 15.8951 23.7446 15.5 22.75 15.5H5.25C4.25544 15.5 3.30161 15.8951 2.59835 16.5983C1.89509 17.3016 1.5 18.2554 1.5 19.25V30.5C1.5 31.4946 1.89509 32.4484 2.59835 33.1516C3.30161 33.8549 4.25544 34.25 5.25 34.25Z" stroke="white" stroke-width="3" stroke-linecap="round" stroke-linejoin="round"/>
</svg>
