<svg width="592" height="405" viewBox="0 0 592 405" fill="none" xmlns="http://www.w3.org/2000/svg">
<g filter="url(#filter0_d_152_188)">
<path d="M50.3508 193.598C25.4719 162.6 -9.49433 76.4744 7.53958 43.381C23.1805 12.9939 148.263 45.7156 162.624 52.4634C219.406 38.6807 347.871 36.3375 431.723 67.1399C496.022 47.6526 539.569 54.3024 554.557 67.6906C567.858 82.4334 547.319 139.068 481.342 196.598C485.036 208.482 489.185 215.05 489.185 215.05L477.721 219.475C482.256 234.029 480.878 262.474 470.624 290.423C468.831 295.31 466.767 300.182 464.416 304.962C447.388 339.574 416.59 362.517 362.143 365.103C352.274 369.022 331.754 374.888 302.923 376.514C249.067 375.622 217.265 367.189 199.255 350.206L182.904 347.378C144.18 341.409 112.664 336.853 92.4559 322.626C86.6249 318.521 81.5581 313.973 77.1746 309.108C51.8405 280.991 49.3311 242.288 54.0319 217.295L39.7196 218.103L48.0661 206.042L51.0973 200.062M50.3508 193.598C51.826 195.436 52.1628 197.96 51.0973 200.062M50.3508 193.598C50.4539 193.726 50.5568 193.854 50.6596 193.98C51.9552 195.576 52.2524 197.784 51.323 199.617L51.0973 200.062" stroke="white" stroke-width="2" stroke-linecap="round"/>
<path d="M24.8882 54.5695C40.5291 24.1824 165.612 56.9042 179.973 63.652C236.754 49.8692 365.219 47.526 449.071 78.3284C513.371 58.8412 556.918 65.491 571.905 78.8791C585.206 93.622 564.668 150.257 498.691 207.787C502.385 219.671 506.533 226.239 506.533 226.239L495.069 230.664C499.605 245.217 498.226 273.663 487.973 301.612C486.18 306.499 484.116 311.371 481.764 316.15C464.737 350.763 433.938 373.705 379.491 376.291C369.623 380.211 349.102 386.077 320.271 387.703C266.416 386.81 234.614 378.378 216.603 361.394L200.252 358.567C161.529 352.598 130.013 348.042 109.804 333.815C103.973 329.71 98.9067 325.162 94.5232 320.297C69.1891 292.18 66.6797 253.476 71.3805 228.484L57.0683 229.291L65.4147 217.231L68.4459 211.251C69.5115 209.149 69.1746 206.624 67.6995 204.786C42.8206 173.789 7.8543 87.6629 24.8882 54.5695Z" fill="white"/>
<path d="M67.6995 204.786C42.8206 173.789 7.8543 87.6629 24.8882 54.5695C40.5291 24.1824 165.612 56.9042 179.973 63.652C236.754 49.8692 365.219 47.526 449.071 78.3285C513.371 58.8412 556.918 65.491 571.905 78.8791C585.206 93.622 564.668 150.257 498.691 207.787C502.385 219.671 506.533 226.239 506.533 226.239L495.069 230.664C499.605 245.217 498.226 273.663 487.973 301.612C486.18 306.499 484.116 311.371 481.764 316.15C464.737 350.763 433.938 373.705 379.491 376.291C369.623 380.211 349.102 386.077 320.271 387.703C266.416 386.81 234.614 378.378 216.603 361.394L200.252 358.567C161.529 352.598 130.013 348.042 109.804 333.815C103.973 329.71 98.9067 325.162 94.5232 320.297C69.1891 292.18 66.6797 253.476 71.3805 228.484L57.0683 229.291L65.4147 217.231L68.4459 211.251M67.6995 204.786C69.1746 206.624 69.5115 209.149 68.4459 211.251M67.6995 204.786C67.8026 204.915 67.9055 205.042 68.0082 205.169C69.3038 206.765 69.601 208.972 68.6717 210.806L68.4459 211.251" stroke="white" stroke-linecap="round"/>
<path d="M135.295 92.1626C6.1425 23.3797 44.0389 98.6028 84.3792 152.019C87.4151 156.039 93.3652 156.144 96.6421 152.318L137.688 104.394C140.988 100.541 139.772 94.5472 135.295 92.1626Z" fill="#E63A23" stroke="#E63A23" stroke-width="6" stroke-linecap="round"/>
<path d="M460.94 107.297C598.929 58.6153 550.206 127.32 502.328 174.098C498.725 177.619 492.826 176.833 490.159 172.56L456.745 119.032C454.058 114.728 456.157 108.984 460.94 107.297Z" fill="#E63A23" stroke="#E63A23" stroke-width="6" stroke-linecap="round"/>
<path d="M250.203 183.361C245.121 174.485 238.29 163.735 234.333 156.981C233.957 156.34 234.396 155.53 235.136 155.459C240.346 154.96 244.441 153.698 251.267 155.338C262.701 158.087 277.275 166.379 280.456 177.121C281.869 181.892 284.103 189.669 281.54 196.331C277.249 206.913 260.888 198.63 250.203 183.361Z" fill="#E63A23" stroke="#E63A23" stroke-width="2"/>
<path d="M388.408 189.713C394.51 184.836 402.817 176.752 408.892 171.408C409.495 170.878 409.271 169.875 408.515 169.606C404.067 168.028 401.105 165.715 394.88 165.403C384.188 164.868 369.331 168.369 363.795 176.934C361.336 180.738 357.389 186.957 357.918 193.434C358.949 203.777 375.157 200.305 388.408 189.713Z" fill="#E63A23" stroke="#E63A23" stroke-width="2"/>
<path d="M140.162 275.618C156.826 244.146 184.557 238.728 194.334 244.601C208.154 255.157 168.953 285.585 166.713 288.734C166.138 289.543 164.375 291.653 162.826 294.938C161.554 297.638 161.165 300.647 160.416 303.536C159.195 308.241 157.017 313.349 155.45 318.178C154.46 321.227 153.687 324.419 151.822 327.027C148.759 331.31 145.192 332.472 143.349 332.12C137.237 330.953 119.332 314.959 140.162 275.618Z" fill="#E63A23" stroke="#E63A23" stroke-width="2"/>
<path d="M465.743 293.534C463.81 259.256 444.022 249.246 432.622 248.923C415.292 250.366 437.019 279.661 438.802 284.472C439.152 285.418 440.383 291.685 440.389 297.335C440.392 301.025 438.956 304.489 437.531 307.893C435.815 311.993 434.213 316.519 432.678 320.81C431.598 323.829 430.572 326.944 430.738 330.146C431.01 335.405 433.388 338.306 435.131 339.003C440.907 341.314 468.25 337.979 465.743 293.534Z" fill="#E63A23" stroke="#E63A23" stroke-width="2" stroke-linejoin="round"/>
<path d="M398.497 215.854C375.767 209.18 364.8 229.671 361.855 241.804C361.72 242.36 362.094 242.905 362.663 242.971C372.832 244.159 392.672 240.532 399.165 217.057C399.306 216.547 399.004 216.003 398.497 215.854Z" fill="white" stroke="#E63A23" stroke-width="4" stroke-linejoin="round"/>
<path d="M374.173 271.113C392.462 278.269 409.177 294.389 409.754 304.626C410.328 314.796 413.885 338.78 366.502 356.19" stroke="#E63A23" stroke-width="4" stroke-linecap="round" stroke-linejoin="round"/>
<path d="M223.115 209.673C248.043 199.119 263.075 220.994 267.897 234.273C268.093 234.812 267.781 235.393 267.223 235.526C255.94 238.205 232.915 236.737 222.584 210.947C222.387 210.456 222.627 209.879 223.115 209.673Z" fill="white" stroke="#E63A23" stroke-width="4" stroke-linejoin="round"/>
<path d="M262.101 273.745C244.734 282.912 229.928 300.462 230.505 310.698C231.037 320.115 230.25 345.449 279.289 357.42" stroke="#E63A23" stroke-width="4" stroke-linecap="round" stroke-linejoin="round"/>
<path d="M330.304 293.253C324.944 301.931 312.402 302.148 306.745 293.661L301.025 285.081C294.884 275.868 301.361 263.509 312.432 263.318L323.571 263.125C334.641 262.933 341.542 275.061 335.724 284.481L330.304 293.253Z" fill="#E63A23" stroke="#E63A23" stroke-width="2"/>
</g>
<defs>
<filter id="filter0_d_152_188" x="0.0314941" y="27.6608" width="582.211" height="366.542" filterUnits="userSpaceOnUse" color-interpolation-filters="sRGB">
<feFlood flood-opacity="0" result="BackgroundImageFix"/>
<feColorMatrix in="SourceAlpha" type="matrix" values="0 0 0 0 0 0 0 0 0 0 0 0 0 0 0 0 0 0 127 0" result="hardAlpha"/>
<feOffset dx="2" dy="2"/>
<feGaussianBlur stdDeviation="2"/>
<feComposite in2="hardAlpha" operator="out"/>
<feColorMatrix type="matrix" values="0 0 0 0 0.129412 0 0 0 0 0.129412 0 0 0 0 0.129412 0 0 0 0.25 0"/>
<feBlend mode="normal" in2="BackgroundImageFix" result="effect1_dropShadow_152_188"/>
<feBlend mode="normal" in="SourceGraphic" in2="effect1_dropShadow_152_188" result="shape"/>
</filter>
</defs>
</svg>
