<svg width="562" height="340" viewBox="0 0 562 340" fill="none" xmlns="http://www.w3.org/2000/svg">
<g filter="url(#filter0_d_8_30)">
<path d="M514.871 164.843C535.605 139.009 564.746 67.2318 550.55 39.6516C537.515 14.3268 433.27 41.5973 421.302 47.2209C373.98 35.7343 266.916 33.7815 197.034 59.4524C143.446 43.2116 107.154 48.7535 94.6632 59.9113C83.5781 72.198 100.695 119.398 155.68 167.344C152.602 177.248 149.144 182.721 149.144 182.721L158.699 186.409C154.919 198.538 156.067 222.245 164.613 245.538C166.107 249.611 167.827 253.671 169.787 257.654C183.978 286.5 209.645 305.621 255.022 307.776C263.246 311.043 280.348 315.931 304.376 317.287C349.26 316.542 375.764 309.515 390.773 295.361L404.401 293.005C436.673 288.03 462.939 284.233 479.78 272.376C484.64 268.955 488.863 265.164 492.516 261.11C513.629 237.677 515.721 205.422 511.803 184.593L523.731 185.265L516.775 175.214L514.249 170.231M514.871 164.843C513.641 166.375 513.361 168.479 514.249 170.231M514.871 164.843V164.843C513.644 166.372 513.362 168.482 514.249 170.231V170.231" stroke="#E63A23" stroke-width="2" stroke-linecap="round"/>
<path d="M536.091 48.9762C523.056 23.6514 418.811 50.9219 406.843 56.5455C359.521 45.0589 252.458 43.1061 182.575 68.777C128.987 52.5362 92.6951 58.0782 80.2046 69.2359C69.1195 81.5227 86.2361 128.722 141.222 176.668C138.143 186.572 134.686 192.046 134.686 192.046L144.24 195.734C140.46 207.863 141.609 231.569 150.154 254.862C151.648 258.935 153.369 262.995 155.329 266.979C169.519 295.825 195.187 314.946 240.563 317.1C248.788 320.367 265.89 325.256 289.918 326.611C334.801 325.867 361.305 318.839 376.315 304.685L389.942 302.329C422.214 297.354 448.48 293.557 465.322 281.7C470.181 278.279 474.404 274.489 478.057 270.434C499.171 247.002 501.262 214.746 497.344 193.917L509.272 194.59L502.316 184.539L499.79 179.555C498.904 177.807 499.185 175.696 500.412 174.168C521.146 148.334 550.287 76.5564 536.091 48.9762Z" fill="#E63A23"/>
<path d="M500.412 174.168C521.146 148.334 550.287 76.5564 536.091 48.9762C523.056 23.6514 418.811 50.9219 406.843 56.5455C359.521 45.0589 252.458 43.1061 182.575 68.777C128.987 52.5362 92.6951 58.0782 80.2046 69.2359C69.1195 81.5227 86.2361 128.722 141.222 176.668C138.143 186.572 134.686 192.046 134.686 192.046L144.24 195.734C140.46 207.863 141.609 231.569 150.154 254.862C151.648 258.935 153.369 262.995 155.329 266.979C169.519 295.825 195.187 314.946 240.563 317.1C248.788 320.367 265.89 325.256 289.918 326.611C334.801 325.867 361.305 318.839 376.315 304.685L389.942 302.329C422.214 297.354 448.48 293.557 465.322 281.7C470.181 278.279 474.404 274.489 478.057 270.434C499.171 247.002 501.262 214.746 497.344 193.917L509.272 194.59L502.316 184.539L499.79 179.555M500.412 174.168C499.183 175.699 498.902 177.803 499.79 179.555M500.412 174.168V174.168C499.185 175.696 498.904 177.807 499.79 179.555V179.555" stroke="#E63A23" stroke-linecap="round"/>
<path d="M445.493 79.5553C550.406 24.0793 520.582 84.669 487.487 128.893C484.469 132.926 478.514 133.036 475.238 129.21L443.149 91.744C439.849 87.8911 441.009 81.9266 445.493 79.5553Z" fill="white" stroke="white" stroke-width="6" stroke-linecap="round"/>
<path d="M171.172 92.3882C59.1409 53.2367 97.6941 108.681 137.032 147.455C140.62 150.991 146.524 150.209 149.191 145.935L175.313 104.089C177.999 99.7857 175.961 94.0618 171.172 92.3882Z" fill="white" stroke="white" stroke-width="6" stroke-linecap="round"/>
<path d="M348.313 156.312C352.491 149.014 358.087 140.198 361.404 134.558C361.781 133.917 361.341 133.107 360.602 133.032C356.385 132.599 352.997 131.618 347.426 132.957C337.897 135.248 325.751 142.159 323.1 151.111C321.922 155.087 320.061 161.569 322.197 167.121C325.773 175.94 339.408 169.037 348.313 156.312Z" fill="white" stroke="white" stroke-width="2"/>
<path d="M233.132 161.605C228.126 157.604 221.338 151.011 216.297 146.559C215.696 146.027 215.918 145.02 216.67 144.741C220.216 143.431 222.689 141.599 227.739 141.346C236.649 140.9 249.031 143.817 253.645 150.955C255.694 154.125 258.984 159.309 258.543 164.706C257.684 173.326 244.176 170.432 233.132 161.605Z" fill="white" stroke="white" stroke-width="2"/>
<path d="M440.022 233.199C426.134 206.97 403.023 202.455 394.874 207.349C383.357 216.147 416.027 241.505 417.894 244.13C418.333 244.747 419.602 246.274 420.804 248.629C422.16 251.288 422.531 254.314 423.337 257.188C424.309 260.657 425.833 264.357 427.028 267.906C428.052 270.944 428.786 274.18 430.789 276.684C433.224 279.73 435.926 280.563 437.366 280.288C442.459 279.316 457.381 265.986 440.022 233.199Z" fill="white" stroke="white" stroke-width="2"/>
<path d="M168.681 248.13C170.292 219.563 186.783 211.22 196.284 210.951C210.728 212.154 192.62 236.568 191.134 240.578C190.861 241.315 189.947 245.928 189.825 250.373C189.725 254.031 191.13 257.478 192.512 260.868L192.546 260.952C193.745 263.893 194.877 267.056 195.967 270.106C197.047 273.125 198.129 276.255 197.792 279.444C197.382 283.322 195.555 285.48 194.194 286.024C189.379 287.951 166.592 285.171 168.681 248.13Z" fill="white" stroke="white" stroke-width="2" stroke-linejoin="round"/>
<path d="M224.875 183.348C243.609 177.951 252.711 194.741 255.22 204.846C255.358 205.402 254.987 205.948 254.417 206.01C245.915 206.937 229.627 203.844 224.209 184.545C224.067 184.036 224.367 183.494 224.875 183.348Z" fill="#E63A23" stroke="white" stroke-width="4" stroke-linejoin="round"/>
<path d="M244.996 229.444C229.754 235.408 215.824 248.843 215.342 257.374C214.864 265.85 211.9 285.839 251.389 300.348" stroke="white" stroke-width="4" stroke-linecap="round" stroke-linejoin="round"/>
<path d="M370.743 178.179C350.16 169.574 337.703 187.518 333.628 198.574C333.43 199.112 333.739 199.697 334.298 199.825C343.738 201.998 362.685 200.673 371.272 179.448C371.471 178.957 371.231 178.383 370.743 178.179Z" fill="#E63A23" stroke="white" stroke-width="4" stroke-linejoin="round"/>
<path d="M338.397 231.638C352.871 239.278 365.21 253.904 364.729 262.435C364.287 270.283 364.942 291.396 324.073 301.373" stroke="white" stroke-width="4" stroke-linecap="round" stroke-linejoin="round"/>
<path d="M297.283 255.17L304.098 243.823C308.854 235.904 303.255 225.806 294.018 225.646L280.785 225.417C271.548 225.257 265.603 235.155 270.082 243.234L276.501 254.811C280.98 262.89 292.526 263.09 297.283 255.17Z" fill="white" stroke="white" stroke-width="2"/>
<g class="teste">
<path d="M66.5 58.385L36 26.3851" stroke="#E63A23" stroke-width="2" stroke-linecap="round"/>
<line x1="57.749" y1="74.0446" x2="17.6596" y2="61.636" stroke="#E63A23" stroke-width="2" stroke-linecap="round"/>
<path d="M57.6152 64.6721L30 46.8851" stroke="#E63A23" stroke-width="2" stroke-linecap="round"/>
</g>
<g>
<path d="M483 293.385L513.5 325.385" stroke="#E63A23" stroke-width="2" stroke-linecap="round"/>
<line x1="491.751" y1="277.725" x2="531.84" y2="290.134" stroke="#E63A23" stroke-width="2" stroke-linecap="round"/>
<path d="M491.885 287.098L519.5 304.885" stroke="#E63A23" stroke-width="2" stroke-linecap="round"/>
</g>
</g>
<defs>
<filter id="filter0_d_8_30" x="14.6593" y="23.3851" width="546.648" height="309.726" filterUnits="userSpaceOnUse" color-interpolation-filters="sRGB">
<feFlood flood-opacity="0" result="BackgroundImageFix"/>
<feColorMatrix in="SourceAlpha" type="matrix" values="0 0 0 0 0 0 0 0 0 0 0 0 0 0 0 0 0 0 127 0" result="hardAlpha"/>
<feOffset dx="2" dy="2"/>
<feGaussianBlur stdDeviation="2"/>
<feComposite in2="hardAlpha" operator="out"/>
<feColorMatrix type="matrix" values="0 0 0 0 0.129412 0 0 0 0 0.129412 0 0 0 0 0.129412 0 0 0 0.25 0"/>
<feBlend mode="normal" in2="BackgroundImageFix" result="effect1_dropShadow_8_30"/>
<feBlend mode="normal" in="SourceGraphic" in2="effect1_dropShadow_8_30" result="shape"/>
</filter>
</defs>
</svg>
