<svg width="209" height="76" viewBox="0 0 209 76" fill="none" xmlns="http://www.w3.org/2000/svg">
<path d="M43.5664 25.4219C41.8142 28.462 44.7373 36.8705 47.0312 39.5672L45.7412 41.4703L47.048 41.4587C46.0976 45.4567 47.024 53.4758 58.3333 53.568L60.4828 53.5489C62.5167 55.07 64.1236 56.7185 69.024 57.0326C71.6564 57.0093 73.5505 56.5639 74.466 56.2496C83.7628 57.4396 86.4752 46.772 85.6206 43.4893L86.6837 43.1359C86.6837 43.1359 86.3343 42.5199 86.0494 41.4219C92.3062 36.4688 94.4214 31.4007 93.2739 30.0008C91.967 28.7169 88.0303 27.9231 82.0908 29.4195C74.5882 26.2522 62.8797 25.91 57.6495 26.9195C56.3709 26.243 45.1221 22.7226 43.5664 25.4219Z" fill="#E63A23" stroke="#E63A23" stroke-width="2" stroke-linecap="round"/>
<path d="M52.1116 28.5471C43.1108 23.5525 44.8357 28.6571 47.7156 33.2592C48.3836 34.3267 49.8733 34.425 50.737 33.5085L52.5513 31.5832C53.4212 30.6602 53.2206 29.1625 52.1116 28.5471Z" fill="white" stroke="white" stroke-width="0.5" stroke-linecap="round"/>
<path d="M83.9997 32.0406C93.8876 29.1789 91.0679 33.7704 87.2343 37.6143C86.345 38.506 84.8709 38.2697 84.2333 37.1837L82.894 34.9022C82.2519 33.8085 82.7814 32.3932 83.9997 32.0406Z" fill="white" stroke="white" stroke-width="0.5" stroke-linecap="round"/>
<path d="M63.5271 38.1233C63.3361 37.7497 63.1145 37.34 62.8984 36.9447C62.5417 36.2925 63.0315 35.3685 63.7452 35.5763C64.7745 35.8759 66.0658 36.6941 66.309 37.6859C66.4171 38.1264 66.5868 38.8443 66.3246 39.4398C65.8881 40.3847 64.4341 39.5598 63.5271 38.1233Z" fill="white" stroke="white" stroke-width="0.5"/>
<path d="M76.0849 39.2992C76.3629 39.0979 76.6909 38.8308 77.0205 38.5567C77.505 38.1538 77.4064 37.1751 76.7793 37.1137C75.8081 37.0188 74.4399 37.2733 73.8988 38.0292C73.6585 38.365 73.2721 38.9142 73.2923 39.5062C73.3414 40.4525 74.8324 40.2064 76.0849 39.2992Z" fill="white" stroke="white" stroke-width="0.5"/>
<path d="M53.1076 46.0479C54.7611 43.2543 57.3098 42.8808 58.1747 43.4578C59.3876 44.4789 55.6862 47.0799 55.4686 47.357C55.0256 47.9209 54.8768 48.6265 54.6024 49.289C54.3047 50.0076 54.1191 51.0101 53.3642 51.1979C53.2809 51.2187 53.2082 51.2197 53.1534 51.2065C52.6019 51.0738 51.0406 49.54 53.1076 46.0479Z" fill="white" stroke="white" stroke-width="0.5"/>
<path d="M82.6781 49.0871C82.6503 45.9575 80.8917 44.9605 79.855 44.8818C78.2706 44.9383 80.1224 47.6996 80.264 48.1455C80.2794 48.1942 80.3126 48.3943 80.3349 48.6508C80.4027 49.4317 80.0845 50.1531 79.7788 50.8749C79.5132 51.5021 79.1438 52.2298 79.4554 52.8356C79.5261 52.973 79.616 53.0594 79.6938 53.0949C80.2099 53.3303 82.7142 53.1448 82.6781 49.0871Z" fill="white" stroke="white" stroke-width="0.5" stroke-linejoin="round"/>
<path d="M76.054 41.5652C74.9773 41.5434 74.2451 42.2833 73.815 43.0475C73.534 43.5468 73.8977 44.1229 74.4642 44.0378C75.1963 43.9278 76.0368 43.5472 76.5956 42.614C76.8674 42.1602 76.5828 41.5759 76.054 41.5652Z" fill="#E63A23" stroke="white" stroke-width="0.5"/>
<path d="M74.4366 46.6496C76.071 47.3803 77.5234 48.9204 77.5317 49.855C77.5399 50.7835 77.7601 52.9828 73.3701 54.3631" stroke="white" stroke-width="0.5" stroke-linecap="round"/>
<path d="M61.7788 40.2101C63.1254 40.0957 64.0323 41.0287 64.5415 41.9552C64.8177 42.4576 64.4672 43.0378 63.8963 42.9844C63.0064 42.9011 61.9345 42.4787 61.246 41.2942C60.9799 40.8364 61.2511 40.2549 61.7788 40.2101Z" fill="#E63A23" stroke="white" stroke-width="0.5"/>
<path d="M64.2197 46.4047C62.5985 47.1643 61.1744 48.6982 61.1827 49.6329C61.1904 50.4926 61.0091 52.7959 65.423 54.0981" stroke="white" stroke-width="0.5" stroke-linecap="round"/>
<path d="M70.9445 48.3792C70.4463 49.2823 69.1571 49.3074 68.6241 48.4243C68.0911 47.5412 68.7139 46.4123 69.7452 46.3922C70.7765 46.3721 71.4428 47.476 70.9445 48.3792Z" fill="white" stroke="white"/>
<path d="M6.336 60C5.86667 60 5.48267 59.8507 5.184 59.552C4.88533 59.2533 4.736 58.8693 4.736 58.4V16.8C4.736 16.3307 4.88533 15.9467 5.184 15.648C5.48267 15.3493 5.86667 15.2 6.336 15.2H34.88C35.3493 15.2 35.7333 15.3493 36.032 15.648C36.3307 15.9467 36.48 16.3307 36.48 16.8V22.24C36.48 22.7093 36.3307 23.0933 36.032 23.392C35.7333 23.6907 35.3493 23.84 34.88 23.84H14.72V34.656H33.6C34.0693 34.656 34.4533 34.8053 34.752 35.104C35.0507 35.4027 35.2 35.7867 35.2 36.256V41.696C35.2 42.1227 35.0507 42.4853 34.752 42.784C34.4533 43.0827 34.0693 43.232 33.6 43.232H14.72V58.4C14.72 58.8693 14.5707 59.2533 14.272 59.552C13.9733 59.8507 13.5893 60 13.12 60H6.336ZM113.827 60.64C110.285 60.64 107.32 60.064 104.931 58.912C102.541 57.7173 100.707 56.032 99.4265 53.856C98.1892 51.68 97.5065 49.1413 97.3785 46.24C97.3358 45.3867 97.3145 44.4267 97.3145 43.36C97.3145 42.2507 97.3358 41.2907 97.3785 40.48C97.5065 37.536 98.2318 34.9973 99.5545 32.864C100.877 30.688 102.733 29.024 105.123 27.872C107.512 26.6773 110.413 26.08 113.827 26.08C117.197 26.08 120.077 26.6773 122.467 27.872C124.856 29.024 126.712 30.688 128.035 32.864C129.357 34.9973 130.083 37.536 130.211 40.48C130.296 41.2907 130.339 42.2507 130.339 43.36C130.339 44.4267 130.296 45.3867 130.211 46.24C130.083 49.1413 129.379 51.68 128.099 53.856C126.861 56.032 125.048 57.7173 122.659 58.912C120.269 60.064 117.325 60.64 113.827 60.64ZM113.827 53.6C115.917 53.6 117.496 52.96 118.563 51.68C119.629 50.3573 120.205 48.4373 120.291 45.92C120.333 45.28 120.355 44.4267 120.355 43.36C120.355 42.2933 120.333 41.44 120.291 40.8C120.205 38.3253 119.629 36.4267 118.563 35.104C117.496 33.7813 115.917 33.12 113.827 33.12C111.736 33.12 110.136 33.7813 109.027 35.104C107.96 36.4267 107.384 38.3253 107.299 40.8C107.256 41.44 107.235 42.2933 107.235 43.36C107.235 44.4267 107.256 45.28 107.299 45.92C107.384 48.4373 107.96 50.3573 109.027 51.68C110.136 52.96 111.736 53.6 113.827 53.6ZM151.816 60.64C148.701 60.64 145.949 60.064 143.56 58.912C141.213 57.76 139.357 56.096 137.992 53.92C136.627 51.7013 135.88 49.056 135.752 45.984C135.709 45.3013 135.688 44.448 135.688 43.424C135.688 42.3573 135.709 41.4827 135.752 40.8C135.88 37.6853 136.605 35.04 137.928 32.864C139.293 30.6453 141.171 28.96 143.56 27.808C145.949 26.656 148.701 26.08 151.816 26.08C154.675 26.08 157.107 26.4853 159.112 27.296C161.117 28.064 162.76 29.0453 164.04 30.24C165.32 31.4347 166.259 32.6933 166.856 34.016C167.496 35.296 167.837 36.4267 167.88 37.408C167.923 37.8347 167.773 38.2187 167.432 38.56C167.133 38.8587 166.771 39.008 166.344 39.008H159.496C159.069 39.008 158.728 38.9013 158.472 38.688C158.259 38.432 158.045 38.0907 157.832 37.664C157.235 36.1707 156.467 35.104 155.528 34.464C154.589 33.824 153.416 33.504 152.008 33.504C150.088 33.504 148.573 34.1227 147.464 35.36C146.355 36.5973 145.757 38.5173 145.672 41.12C145.629 42.784 145.629 44.2987 145.672 45.664C145.8 48.3093 146.397 50.2293 147.464 51.424C148.573 52.6187 150.088 53.216 152.008 53.216C153.501 53.216 154.696 52.896 155.592 52.256C156.488 51.616 157.235 50.5493 157.832 49.056C158.003 48.6293 158.216 48.3093 158.472 48.096C158.728 47.84 159.069 47.712 159.496 47.712H166.344C166.771 47.712 167.133 47.8827 167.432 48.224C167.773 48.5227 167.923 48.8853 167.88 49.312C167.837 50.0373 167.624 50.8907 167.24 51.872C166.899 52.8533 166.323 53.856 165.512 54.88C164.744 55.904 163.741 56.864 162.504 57.76C161.267 58.6133 159.752 59.3173 157.96 59.872C156.211 60.384 154.163 60.64 151.816 60.64ZM189.389 60.64C185.848 60.64 182.882 60.064 180.493 58.912C178.104 57.7173 176.269 56.032 174.989 53.856C173.752 51.68 173.069 49.1413 172.941 46.24C172.898 45.3867 172.877 44.4267 172.877 43.36C172.877 42.2507 172.898 41.2907 172.941 40.48C173.069 37.536 173.794 34.9973 175.117 32.864C176.44 30.688 178.296 29.024 180.685 27.872C183.074 26.6773 185.976 26.08 189.389 26.08C192.76 26.08 195.64 26.6773 198.029 27.872C200.418 29.024 202.274 30.688 203.597 32.864C204.92 34.9973 205.645 37.536 205.773 40.48C205.858 41.2907 205.901 42.2507 205.901 43.36C205.901 44.4267 205.858 45.3867 205.773 46.24C205.645 49.1413 204.941 51.68 203.661 53.856C202.424 56.032 200.61 57.7173 198.221 58.912C195.832 60.064 192.888 60.64 189.389 60.64ZM189.389 53.6C191.48 53.6 193.058 52.96 194.125 51.68C195.192 50.3573 195.768 48.4373 195.853 45.92C195.896 45.28 195.917 44.4267 195.917 43.36C195.917 42.2933 195.896 41.44 195.853 40.8C195.768 38.3253 195.192 36.4267 194.125 35.104C193.058 33.7813 191.48 33.12 189.389 33.12C187.298 33.12 185.698 33.7813 184.589 35.104C183.522 36.4267 182.946 38.3253 182.861 40.8C182.818 41.44 182.797 42.2933 182.797 43.36C182.797 44.4267 182.818 45.28 182.861 45.92C182.946 48.4373 183.522 50.3573 184.589 51.68C185.698 52.96 187.298 53.6 189.389 53.6Z" fill="#E63A23"/>
</svg>
