<svg width="209" height="64" viewBox="0 0 209 64" fill="none" xmlns="http://www.w3.org/2000/svg">
<path d="M43.5664 19.4219C41.8142 22.462 44.7373 30.8705 47.0312 33.5672L45.7412 35.4703L47.048 35.4587C46.0976 39.4567 47.024 47.4758 58.3333 47.568L60.4828 47.5489C62.5167 49.07 64.1236 50.7185 69.024 51.0326C71.6564 51.0093 73.5505 50.5639 74.466 50.2496C83.7628 51.4396 86.4752 40.772 85.6206 37.4893L86.6837 37.1359C86.6837 37.1359 86.3343 36.5199 86.0494 35.4219C92.3062 30.4688 94.4214 25.4007 93.2739 24.0008C91.967 22.7169 88.0303 21.9231 82.0908 23.4195C74.5882 20.2522 62.8797 19.91 57.6495 20.9195C56.3709 20.243 45.1221 16.7226 43.5664 19.4219Z" fill="white" stroke="white" stroke-width="2" stroke-linecap="round"/>
<path d="M52.1116 22.5471C43.1108 17.5526 44.8357 22.6572 47.7156 27.2592C48.3836 28.3267 49.8733 28.4251 50.737 27.5086L52.5513 25.5832C53.4212 24.6602 53.2206 23.1625 52.1116 22.5471Z" fill="#E63A23" stroke="#E63A23" stroke-width="0.5" stroke-linecap="round"/>
<path d="M83.9997 26.0407C93.8876 23.1789 91.0679 27.7704 87.2343 31.6144C86.345 32.506 84.8709 32.2697 84.2333 31.1837L82.894 28.9023C82.2519 27.8085 82.7814 26.3933 83.9997 26.0407Z" fill="#E63A23" stroke="#E63A23" stroke-width="0.5" stroke-linecap="round"/>
<path d="M63.5271 32.1233C63.3361 31.7497 63.1145 31.34 62.8984 30.9448C62.5417 30.2926 63.0315 29.3685 63.7452 29.5763C64.7745 29.876 66.0658 30.6941 66.309 31.6859C66.4171 32.1264 66.5868 32.8443 66.3246 33.4398C65.8881 34.3848 64.4341 33.5598 63.5271 32.1233Z" fill="#E63A23" stroke="#E63A23" stroke-width="0.5"/>
<path d="M76.0849 33.2993C76.3629 33.0979 76.6909 32.8309 77.0205 32.5567C77.505 32.1539 77.4064 31.1751 76.7793 31.1138C75.8081 31.0188 74.4399 31.2733 73.8988 32.0292C73.6585 32.365 73.2721 32.9142 73.2923 33.5062C73.3414 34.4525 74.8324 34.2064 76.0849 33.2993Z" fill="#E63A23" stroke="#E63A23" stroke-width="0.5"/>
<path d="M53.1076 40.048C54.7611 37.2543 57.3098 36.8809 58.1747 37.4579C59.3876 38.4789 55.6862 41.0799 55.4686 41.357C55.0256 41.9209 54.8768 42.6265 54.6024 43.289C54.3047 44.0077 54.1191 45.0101 53.3642 45.198C53.2809 45.2187 53.2082 45.2197 53.1534 45.2065C52.6019 45.0738 51.0406 43.54 53.1076 40.048Z" fill="#E63A23" stroke="#E63A23" stroke-width="0.5"/>
<path d="M82.6781 43.0871C82.6503 39.9575 80.8917 38.9605 79.855 38.8818C78.2706 38.9383 80.1224 41.6996 80.264 42.1455C80.2794 42.1942 80.3126 42.3943 80.3349 42.6508C80.4027 43.4317 80.0845 44.1531 79.7788 44.8749C79.5132 45.5021 79.1438 46.2298 79.4554 46.8356C79.5261 46.973 79.616 47.0594 79.6938 47.0949C80.2099 47.3303 82.7142 47.1448 82.6781 43.0871Z" fill="#E63A23" stroke="#E63A23" stroke-width="0.5" stroke-linejoin="round"/>
<path d="M76.054 35.5652C74.9773 35.5434 74.2451 36.2833 73.815 37.0476C73.534 37.5469 73.8977 38.1229 74.4642 38.0378C75.1963 37.9278 76.0368 37.5472 76.5956 36.614C76.8674 36.1602 76.5828 35.576 76.054 35.5652Z" fill="white" stroke="#E63A23" stroke-width="0.5"/>
<path d="M74.4366 40.6496C76.071 41.3802 77.5234 42.9204 77.5317 43.855C77.5399 44.7835 77.7601 46.9828 73.3701 48.3631" stroke="#E63A23" stroke-width="0.5" stroke-linecap="round"/>
<path d="M61.7788 34.2101C63.1254 34.0958 64.0323 35.0287 64.5415 35.9552C64.8177 36.4577 64.4672 37.0379 63.8963 36.9844C63.0064 36.9011 61.9345 36.4788 61.246 35.2942C60.9799 34.8364 61.2511 34.2549 61.7788 34.2101Z" fill="white" stroke="#E63A23" stroke-width="0.5"/>
<path d="M64.2197 40.4047C62.5985 41.1642 61.1744 42.6982 61.1827 43.6328C61.1904 44.4926 61.0091 46.7959 65.423 48.098" stroke="#E63A23" stroke-width="0.5" stroke-linecap="round"/>
<path d="M70.9445 42.3791C70.4463 43.2823 69.1571 43.3074 68.6241 42.4243C68.0911 41.5412 68.7139 40.4122 69.7452 40.3922C70.7765 40.3721 71.4428 41.476 70.9445 42.3791Z" fill="#E63A23" stroke="#E63A23"/>
<path d="M6.336 54C5.86667 54 5.48267 53.8507 5.184 53.552C4.88533 53.2533 4.736 52.8693 4.736 52.4V10.8C4.736 10.3307 4.88533 9.94666 5.184 9.648C5.48267 9.34933 5.86667 9.2 6.336 9.2H34.88C35.3493 9.2 35.7333 9.34933 36.032 9.648C36.3307 9.94666 36.48 10.3307 36.48 10.8V16.24C36.48 16.7093 36.3307 17.0933 36.032 17.392C35.7333 17.6907 35.3493 17.84 34.88 17.84H14.72V28.656H33.6C34.0693 28.656 34.4533 28.8053 34.752 29.104C35.0507 29.4027 35.2 29.7867 35.2 30.256V35.696C35.2 36.1227 35.0507 36.4853 34.752 36.784C34.4533 37.0827 34.0693 37.232 33.6 37.232H14.72V52.4C14.72 52.8693 14.5707 53.2533 14.272 53.552C13.9733 53.8507 13.5893 54 13.12 54H6.336ZM113.827 54.64C110.285 54.64 107.32 54.064 104.931 52.912C102.541 51.7173 100.707 50.032 99.4265 47.856C98.1892 45.68 97.5065 43.1413 97.3785 40.24C97.3358 39.3867 97.3145 38.4267 97.3145 37.36C97.3145 36.2507 97.3358 35.2907 97.3785 34.48C97.5065 31.536 98.2318 28.9973 99.5545 26.864C100.877 24.688 102.733 23.024 105.123 21.872C107.512 20.6773 110.413 20.08 113.827 20.08C117.197 20.08 120.077 20.6773 122.467 21.872C124.856 23.024 126.712 24.688 128.035 26.864C129.357 28.9973 130.083 31.536 130.211 34.48C130.296 35.2907 130.339 36.2507 130.339 37.36C130.339 38.4267 130.296 39.3867 130.211 40.24C130.083 43.1413 129.379 45.68 128.099 47.856C126.861 50.032 125.048 51.7173 122.659 52.912C120.269 54.064 117.325 54.64 113.827 54.64ZM113.827 47.6C115.917 47.6 117.496 46.96 118.563 45.68C119.629 44.3573 120.205 42.4373 120.291 39.92C120.333 39.28 120.355 38.4267 120.355 37.36C120.355 36.2933 120.333 35.44 120.291 34.8C120.205 32.3253 119.629 30.4267 118.563 29.104C117.496 27.7813 115.917 27.12 113.827 27.12C111.736 27.12 110.136 27.7813 109.027 29.104C107.96 30.4267 107.384 32.3253 107.299 34.8C107.256 35.44 107.235 36.2933 107.235 37.36C107.235 38.4267 107.256 39.28 107.299 39.92C107.384 42.4373 107.96 44.3573 109.027 45.68C110.136 46.96 111.736 47.6 113.827 47.6ZM151.816 54.64C148.701 54.64 145.949 54.064 143.56 52.912C141.213 51.76 139.357 50.096 137.992 47.92C136.627 45.7013 135.88 43.056 135.752 39.984C135.709 39.3013 135.688 38.448 135.688 37.424C135.688 36.3573 135.709 35.4827 135.752 34.8C135.88 31.6853 136.605 29.04 137.928 26.864C139.293 24.6453 141.171 22.96 143.56 21.808C145.949 20.656 148.701 20.08 151.816 20.08C154.675 20.08 157.107 20.4853 159.112 21.296C161.117 22.064 162.76 23.0453 164.04 24.24C165.32 25.4347 166.259 26.6933 166.856 28.016C167.496 29.296 167.837 30.4267 167.88 31.408C167.923 31.8347 167.773 32.2187 167.432 32.56C167.133 32.8587 166.771 33.008 166.344 33.008H159.496C159.069 33.008 158.728 32.9013 158.472 32.688C158.259 32.432 158.045 32.0907 157.832 31.664C157.235 30.1707 156.467 29.104 155.528 28.464C154.589 27.824 153.416 27.504 152.008 27.504C150.088 27.504 148.573 28.1227 147.464 29.36C146.355 30.5973 145.757 32.5173 145.672 35.12C145.629 36.784 145.629 38.2987 145.672 39.664C145.8 42.3093 146.397 44.2293 147.464 45.424C148.573 46.6187 150.088 47.216 152.008 47.216C153.501 47.216 154.696 46.896 155.592 46.256C156.488 45.616 157.235 44.5493 157.832 43.056C158.003 42.6293 158.216 42.3093 158.472 42.096C158.728 41.84 159.069 41.712 159.496 41.712H166.344C166.771 41.712 167.133 41.8827 167.432 42.224C167.773 42.5227 167.923 42.8853 167.88 43.312C167.837 44.0373 167.624 44.8907 167.24 45.872C166.899 46.8533 166.323 47.856 165.512 48.88C164.744 49.904 163.741 50.864 162.504 51.76C161.267 52.6133 159.752 53.3173 157.96 53.872C156.211 54.384 154.163 54.64 151.816 54.64ZM189.389 54.64C185.848 54.64 182.882 54.064 180.493 52.912C178.104 51.7173 176.269 50.032 174.989 47.856C173.752 45.68 173.069 43.1413 172.941 40.24C172.898 39.3867 172.877 38.4267 172.877 37.36C172.877 36.2507 172.898 35.2907 172.941 34.48C173.069 31.536 173.794 28.9973 175.117 26.864C176.44 24.688 178.296 23.024 180.685 21.872C183.074 20.6773 185.976 20.08 189.389 20.08C192.76 20.08 195.64 20.6773 198.029 21.872C200.418 23.024 202.274 24.688 203.597 26.864C204.92 28.9973 205.645 31.536 205.773 34.48C205.858 35.2907 205.901 36.2507 205.901 37.36C205.901 38.4267 205.858 39.3867 205.773 40.24C205.645 43.1413 204.941 45.68 203.661 47.856C202.424 50.032 200.61 51.7173 198.221 52.912C195.832 54.064 192.888 54.64 189.389 54.64ZM189.389 47.6C191.48 47.6 193.058 46.96 194.125 45.68C195.192 44.3573 195.768 42.4373 195.853 39.92C195.896 39.28 195.917 38.4267 195.917 37.36C195.917 36.2933 195.896 35.44 195.853 34.8C195.768 32.3253 195.192 30.4267 194.125 29.104C193.058 27.7813 191.48 27.12 189.389 27.12C187.298 27.12 185.698 27.7813 184.589 29.104C183.522 30.4267 182.946 32.3253 182.861 34.8C182.818 35.44 182.797 36.2933 182.797 37.36C182.797 38.4267 182.818 39.28 182.861 39.92C182.946 42.4373 183.522 44.3573 184.589 45.68C185.698 46.96 187.298 47.6 189.389 47.6Z" fill="white"/>
</svg>
