<svg width="216" height="47" viewBox="0 0 216 47" fill="none" xmlns="http://www.w3.org/2000/svg">
<path d="M42.7781 12.8299C40.9646 16.0258 43.99 24.8653 46.3641 27.7002L45.029 29.7008L46.3815 29.6886C45.3978 33.8916 46.3567 42.3217 58.0617 42.4186L60.2864 42.3985C62.3915 43.9975 64.0546 45.7305 69.1264 46.0607C71.851 46.0362 73.8113 45.5679 74.7589 45.2376C84.3809 46.4886 87.1882 35.2742 86.3038 31.8233L87.4041 31.4518C87.4041 31.4518 87.0424 30.8043 86.7475 29.6499C93.2233 24.443 95.4124 19.1152 94.2248 17.6435C92.8722 16.2938 88.7978 15.4593 82.6504 17.0324C74.8853 13.7028 62.7672 13.3431 57.354 14.4043C56.0307 13.6931 44.3883 9.9923 42.7781 12.8299Z" fill="#E63A23" stroke="#E63A23" stroke-linecap="round"/>
<path d="M50.4574 15.4839C43.1646 11.6984 43.9895 15.6206 46.3549 19.8503C47.3501 21.6299 49.7818 21.781 51.1725 20.282C52.547 18.8005 52.2456 16.4121 50.4574 15.4839Z" fill="white" stroke="white" stroke-linecap="round"/>
<path d="M85.9106 19.433C93.8422 17.3998 92.1713 21.0395 88.9351 24.627C87.5747 26.1351 85.1796 25.7344 84.155 23.9616C83.1384 22.2027 83.9605 19.9329 85.9106 19.433Z" fill="white" stroke="white" stroke-linecap="round"/>
<path d="M63.4369 26.1821C63.2269 25.7648 62.9811 25.3046 62.7443 24.8654C62.3929 24.2135 62.8706 23.2915 63.5861 23.483C63.6112 23.4897 63.6368 23.4969 63.6627 23.5045C64.728 23.8196 66.0645 24.6796 66.3162 25.7223C66.428 26.1854 66.6038 26.94 66.3323 27.5661C65.8806 28.5594 64.3756 27.6922 63.4369 26.1821Z" fill="white" stroke="white"/>
<path d="M76.4339 27.4182C76.7244 27.2045 77.0675 26.9204 77.4121 26.6293C77.9105 26.2082 77.8028 25.1853 77.1526 25.1207C76.1474 25.0208 74.7314 25.2884 74.1713 26.0831C73.9226 26.436 73.5227 27.0134 73.5435 27.6358C73.5944 28.6305 75.1375 28.3718 76.4339 27.4182Z" fill="white" stroke="white"/>
<path d="M52.653 34.513C54.3644 31.5761 57.0022 31.1836 57.8974 31.7901C59.1527 32.8635 55.3219 35.5978 55.0966 35.8891C54.6373 36.483 54.4843 37.2229 54.2008 37.9182C53.8923 38.6749 53.7049 39.7389 52.9102 39.929C52.8274 39.9488 52.7553 39.9493 52.7004 39.9359C52.1296 39.7964 50.5137 38.184 52.653 34.513Z" fill="white" stroke="white"/>
<path d="M83.258 37.7076C83.2293 34.4176 81.4091 33.3695 80.3361 33.2868C78.6962 33.3462 80.6129 36.249 80.7594 36.7177C80.7754 36.7689 80.8097 36.9788 80.8327 37.248C80.9031 38.0699 80.5737 38.8281 80.2573 39.5868C79.9823 40.2463 79.5988 41.0117 79.9232 41.6496C79.9963 41.7933 80.089 41.8836 80.1693 41.9208C80.7034 42.1683 83.2953 41.9733 83.258 37.7076Z" fill="white" stroke="white" stroke-linejoin="round"/>
<path d="M76.4445 29.8017C75.2828 29.7569 74.503 30.5788 74.0566 31.4103C73.7869 31.9126 74.1478 32.4846 74.7124 32.4061C75.4923 32.2978 76.4009 31.8907 76.9901 30.8556C77.25 30.3991 76.9693 29.8219 76.4445 29.8017Z" fill="#E63A23" stroke="white"/>
<path d="M74.728 35.1456C76.4196 35.9137 77.9229 37.5328 77.9315 38.5153C77.94 39.4914 78.1679 41.8034 73.6242 43.2544" stroke="white" stroke-linecap="round"/>
<path d="M61.5842 28.3801C63.0268 28.233 63.9879 29.2618 64.5148 30.2626C64.7805 30.7674 64.4324 31.3438 63.8638 31.2965C62.9226 31.2181 61.772 30.7701 61.0493 29.468C60.7942 29.0084 61.0611 28.4334 61.5842 28.3801Z" fill="#E63A23" stroke="white"/>
<path d="M64.1538 34.8881C62.4759 35.6866 61.0019 37.2992 61.0105 38.2817C61.0184 39.1855 60.8308 41.6069 65.3992 42.9758" stroke="white" stroke-linecap="round"/>
<path d="M69.0558 37.6271L68.3113 36.3742C67.9196 35.7152 68.3852 34.8783 69.1519 34.8632L70.5923 34.8347C71.359 34.8196 71.8563 35.6374 71.4902 36.3114L70.7942 37.5928C70.4238 38.2747 69.452 38.2939 69.0558 37.6271Z" fill="white" stroke="white"/>
<path d="M6.336 45C5.86667 45 5.48267 44.8507 5.184 44.552C4.88533 44.2533 4.736 43.8693 4.736 43.4V1.8C4.736 1.33066 4.88533 0.946664 5.184 0.647999C5.48267 0.349331 5.86667 0.199997 6.336 0.199997H34.88C35.3493 0.199997 35.7333 0.349331 36.032 0.647999C36.3307 0.946664 36.48 1.33066 36.48 1.8V7.24C36.48 7.70933 36.3307 8.09333 36.032 8.392C35.7333 8.69067 35.3493 8.84 34.88 8.84H14.72V19.656H33.6C34.0693 19.656 34.4533 19.8053 34.752 20.104C35.0507 20.4027 35.2 20.7867 35.2 21.256V26.696C35.2 27.1227 35.0507 27.4853 34.752 27.784C34.4533 28.0827 34.0693 28.232 33.6 28.232H14.72V43.4C14.72 43.8693 14.5707 44.2533 14.272 44.552C13.9733 44.8507 13.5893 45 13.12 45H6.336ZM113.827 45.64C110.285 45.64 107.32 45.064 104.931 43.912C102.541 42.7173 100.707 41.032 99.4265 38.856C98.1892 36.68 97.5065 34.1413 97.3785 31.24C97.3358 30.3867 97.3145 29.4267 97.3145 28.36C97.3145 27.2507 97.3358 26.2907 97.3785 25.48C97.5065 22.536 98.2318 19.9973 99.5545 17.864C100.877 15.688 102.733 14.024 105.123 12.872C107.512 11.6773 110.413 11.08 113.827 11.08C117.197 11.08 120.077 11.6773 122.467 12.872C124.856 14.024 126.712 15.688 128.035 17.864C129.357 19.9973 130.083 22.536 130.211 25.48C130.296 26.2907 130.339 27.2507 130.339 28.36C130.339 29.4267 130.296 30.3867 130.211 31.24C130.083 34.1413 129.379 36.68 128.099 38.856C126.861 41.032 125.048 42.7173 122.659 43.912C120.269 45.064 117.325 45.64 113.827 45.64ZM113.827 38.6C115.917 38.6 117.496 37.96 118.563 36.68C119.629 35.3573 120.205 33.4373 120.291 30.92C120.333 30.28 120.355 29.4267 120.355 28.36C120.355 27.2933 120.333 26.44 120.291 25.8C120.205 23.3253 119.629 21.4267 118.563 20.104C117.496 18.7813 115.917 18.12 113.827 18.12C111.736 18.12 110.136 18.7813 109.027 20.104C107.96 21.4267 107.384 23.3253 107.299 25.8C107.256 26.44 107.235 27.2933 107.235 28.36C107.235 29.4267 107.256 30.28 107.299 30.92C107.384 33.4373 107.96 35.3573 109.027 36.68C110.136 37.96 111.736 38.6 113.827 38.6ZM151.816 45.64C148.701 45.64 145.949 45.064 143.56 43.912C141.213 42.76 139.357 41.096 137.992 38.92C136.627 36.7013 135.88 34.056 135.752 30.984C135.709 30.3013 135.688 29.448 135.688 28.424C135.688 27.3573 135.709 26.4827 135.752 25.8C135.88 22.6853 136.605 20.04 137.928 17.864C139.293 15.6453 141.171 13.96 143.56 12.808C145.949 11.656 148.701 11.08 151.816 11.08C154.675 11.08 157.107 11.4853 159.112 12.296C161.117 13.064 162.76 14.0453 164.04 15.24C165.32 16.4347 166.259 17.6933 166.856 19.016C167.496 20.296 167.837 21.4267 167.88 22.408C167.923 22.8347 167.773 23.2187 167.432 23.56C167.133 23.8587 166.771 24.008 166.344 24.008H159.496C159.069 24.008 158.728 23.9013 158.472 23.688C158.259 23.432 158.045 23.0907 157.832 22.664C157.235 21.1707 156.467 20.104 155.528 19.464C154.589 18.824 153.416 18.504 152.008 18.504C150.088 18.504 148.573 19.1227 147.464 20.36C146.355 21.5973 145.757 23.5173 145.672 26.12C145.629 27.784 145.629 29.2987 145.672 30.664C145.8 33.3093 146.397 35.2293 147.464 36.424C148.573 37.6187 150.088 38.216 152.008 38.216C153.501 38.216 154.696 37.896 155.592 37.256C156.488 36.616 157.235 35.5493 157.832 34.056C158.003 33.6293 158.216 33.3093 158.472 33.096C158.728 32.84 159.069 32.712 159.496 32.712H166.344C166.771 32.712 167.133 32.8827 167.432 33.224C167.773 33.5227 167.923 33.8853 167.88 34.312C167.837 35.0373 167.624 35.8907 167.24 36.872C166.899 37.8533 166.323 38.856 165.512 39.88C164.744 40.904 163.741 41.864 162.504 42.76C161.267 43.6133 159.752 44.3173 157.96 44.872C156.211 45.384 154.163 45.64 151.816 45.64ZM189.389 45.64C185.848 45.64 182.882 45.064 180.493 43.912C178.104 42.7173 176.269 41.032 174.989 38.856C173.752 36.68 173.069 34.1413 172.941 31.24C172.898 30.3867 172.877 29.4267 172.877 28.36C172.877 27.2507 172.898 26.2907 172.941 25.48C173.069 22.536 173.794 19.9973 175.117 17.864C176.44 15.688 178.296 14.024 180.685 12.872C183.074 11.6773 185.976 11.08 189.389 11.08C192.76 11.08 195.64 11.6773 198.029 12.872C200.418 14.024 202.274 15.688 203.597 17.864C204.92 19.9973 205.645 22.536 205.773 25.48C205.858 26.2907 205.901 27.2507 205.901 28.36C205.901 29.4267 205.858 30.3867 205.773 31.24C205.645 34.1413 204.941 36.68 203.661 38.856C202.424 41.032 200.61 42.7173 198.221 43.912C195.832 45.064 192.888 45.64 189.389 45.64ZM189.389 38.6C191.48 38.6 193.058 37.96 194.125 36.68C195.192 35.3573 195.768 33.4373 195.853 30.92C195.896 30.28 195.917 29.4267 195.917 28.36C195.917 27.2933 195.896 26.44 195.853 25.8C195.768 23.3253 195.192 21.4267 194.125 20.104C193.058 18.7813 191.48 18.12 189.389 18.12C187.298 18.12 185.698 18.7813 184.589 20.104C183.522 21.4267 182.946 23.3253 182.861 25.8C182.818 26.44 182.797 27.2933 182.797 28.36C182.797 29.4267 182.818 30.28 182.861 30.92C182.946 33.4373 183.522 35.3573 184.589 36.68C185.698 37.96 187.298 38.6 189.389 38.6Z" fill="#E63A23"/>
</svg>
